<svg width="22" height="17" viewBox="0 0 22 17" fill="none" xmlns="http://www.w3.org/2000/svg">
<path d="M13.9978 6.68179C13.9978 6.81686 14.033 7.09125 14.1179 7.38199C14.2033 7.6741 14.3347 7.96672 14.5183 8.15054L14.658 8.29019V8.47867C14.658 9.38774 14.3242 9.98328 13.8396 10.4054C13.3613 10.822 12.7392 11.0664 12.1736 11.2853C11.8335 11.4364 11.5201 11.5391 11.196 11.7189L11.1091 11.7677L10.6941 11.0207L10.6433 10.9289L10.7361 10.882C11.1073 10.6959 11.4773 10.5482 11.8435 10.4015C12.433 10.1618 12.8844 9.96572 13.2 9.69839C13.501 9.44332 13.6801 9.12068 13.7205 8.61539C13.4858 8.31308 13.3319 7.93998 13.2332 7.60757C13.1353 7.27814 13.0887 6.98305 13.0681 6.82632C12.6738 6.21067 12.4775 5.57634 12.5847 5.10269C12.4943 4.74721 12.4407 4.27889 12.5007 3.82144C12.5612 3.36152 12.7374 2.902 13.116 2.58707C13.35 1.91212 13.8424 1.42475 14.4773 1.12613L14.4812 1.12515L14.6697 1.05289C15.57 0.742485 16.7246 0.810433 17.7839 1.24722L18.0095 1.34683L18.0154 1.34879V1.34976L18.3455 1.5314L18.4207 1.57339L18.3904 1.65445L18.281 1.94742L18.28 1.94644C18.1113 2.42114 18.2441 2.79222 18.4265 3.23062H18.4255C18.6453 3.74408 18.8764 4.39118 18.5457 5.18863C18.6118 5.62062 18.4548 6.24589 18.0623 6.8605C18.0417 7.01732 17.9962 7.3129 17.8982 7.64273C17.7992 7.97578 17.6445 8.34986 17.4089 8.6525C17.4324 9.15635 17.6115 9.47845 17.9167 9.73355C18.2367 10.0008 18.6967 10.1971 19.2859 10.4367C19.8885 10.6742 20.5951 10.9555 21.1472 11.465C21.7046 11.9795 22.1003 12.7217 22.1003 13.8664V14.3332H14.5671V13.3996H21.1511C21.0643 12.7553 20.8036 12.3419 20.4373 12.0373C20.0442 11.7104 19.5283 11.5045 18.9568 11.2834C18.3912 11.0645 17.769 10.8201 17.2908 10.4035C16.8064 9.98135 16.4734 9.38552 16.4734 8.47672V8.28824L16.6121 8.14957C16.7948 7.96681 16.9175 7.67541 16.9988 7.38199C17.0792 7.0915 17.1151 6.81316 17.1335 6.66714V6.53922L17.1501 6.51382L17.2214 6.40933C17.4181 6.08728 17.5245 5.81234 17.5769 5.61148C17.6031 5.51108 17.6158 5.43024 17.6199 5.37222C17.6219 5.3431 17.6211 5.3208 17.6199 5.30582C17.6184 5.28776 17.6164 5.28833 17.6208 5.29703V5.29605L17.5476 5.14957L17.5281 5.10953L17.5447 5.06754L17.6169 4.88492L17.6218 4.87418L17.6677 4.7814C17.8713 4.32427 17.7173 3.97776 17.5427 3.48843V3.48746C17.3665 3.06557 17.1855 2.59068 17.2712 1.97964C16.43 1.64816 15.5398 1.62589 14.8933 1.93179L14.8894 1.93375C14.4066 2.14084 14.1324 2.48232 13.9929 2.9689L13.9568 3.11343L13.948 3.15054L13.9158 3.17203L13.8064 3.24332C13.6047 3.38325 13.4914 3.66772 13.4558 4.00601C13.4207 4.34026 13.4646 4.70187 13.5515 4.96304L13.5544 4.96988V4.97086L13.5906 5.11734L13.6003 5.15347L13.5837 5.18668L13.5144 5.32339C13.5114 5.33533 13.5081 5.36767 13.5125 5.42398C13.517 5.48306 13.5302 5.56198 13.5583 5.65933C13.6007 5.80571 13.6759 5.99198 13.8015 6.21207L13.9441 6.44351L13.9509 6.45328H13.95L13.9871 6.52652L13.9978 6.548V6.68179Z" fill="#DF18FF" stroke="#DF18FF" stroke-width="0.2"/>
<path d="M7.22363 1.52124C7.87989 1.52124 8.40008 1.66179 8.81445 1.90601C9.22883 2.1503 9.53199 2.49446 9.75879 2.89136C10.0967 3.48278 10.2696 4.19861 10.3965 4.88843L10.5127 5.56421V5.56519C10.6045 6.15342 10.6949 6.71383 10.8477 7.1814C11.0002 7.648 11.2096 8.00583 11.5273 8.20776L11.8555 8.3894L11.9502 8.44214L11.8906 8.53198L11.6699 8.86206C11.153 9.63656 10.0063 10.3593 8.81836 10.7058C9.2264 11.8936 10.2109 12.2405 11.2891 12.6355H11.29C11.9098 12.8543 12.5973 13.0983 13.127 13.5476C13.6634 14.0027 14.0332 14.6634 14.0332 15.7V16.1667H-0.0996094V15.7C-0.0996044 14.6633 0.26994 14.0027 0.811523 13.5476C1.34566 13.0988 2.04121 12.8549 2.67969 12.6365L3.08887 12.4841C4.00038 12.1322 4.79456 11.7126 5.15039 10.7058C3.96318 10.3591 2.81656 9.63715 2.30078 8.86304L2.08105 8.53296L2.02051 8.44312L2.11523 8.39038L2.43945 8.21069L2.55957 8.1228C2.82242 7.90637 2.97265 7.6081 3.06152 7.24878C3.16393 6.83454 3.1826 6.34991 3.20117 5.83374C3.21952 5.17824 3.23734 4.42617 3.49707 3.77905C3.75845 3.12813 4.26233 2.58715 5.22949 2.33765C5.5379 2.032 6.14614 1.52133 7.22363 1.52124ZM7.22168 2.4519C6.41962 2.4519 6.04074 2.83108 5.78906 3.08276L5.69922 3.17261L5.67676 3.18042L5.56738 3.21655L5.55664 3.22046V3.21948C5.22817 3.29046 4.98107 3.40063 4.79395 3.5437C4.60762 3.68622 4.47571 3.86593 4.38086 4.08374C4.18848 4.52573 4.1504 5.11968 4.13184 5.87476V5.87573C4.11387 6.36866 4.09576 6.9007 3.9834 7.39722C3.87777 7.86379 3.68514 8.30361 3.3291 8.65894C3.88016 9.20611 4.87865 9.74542 5.81055 9.91772H5.81152L6.17871 9.99097L6.27637 10.0105L6.25684 10.1082L6.18457 10.4753L6.18359 10.4773C5.95833 11.491 5.47697 12.1354 4.88574 12.5847C4.44573 12.919 3.9458 13.1438 3.4541 13.3357L2.96777 13.5203C2.41229 13.7242 1.92397 13.8937 1.55273 14.1589C1.21374 14.4011 0.975082 14.7232 0.887695 15.2332H13.0781C12.9907 14.7403 12.7532 14.418 12.4141 14.1716C12.1355 13.9693 11.7902 13.8182 11.4014 13.6697L10.999 13.5203C10.3608 13.283 9.65777 13.0305 9.06641 12.5847C8.4704 12.1353 7.98884 11.491 7.78223 10.4763V10.4753L7.70898 10.1082L7.68945 10.0105L7.78809 9.99097L8.15527 9.91772H8.15625L8.33887 9.87964C9.21746 9.67446 10.1239 9.16819 10.6387 8.65601C10.3147 8.30187 10.1061 7.85546 9.95801 7.36792C9.79984 6.84704 9.70652 6.27183 9.61523 5.70483V5.70386C9.4316 4.65571 9.25967 3.84207 8.91895 3.28882C8.75053 3.01551 8.54204 2.80856 8.27148 2.6687C7.99999 2.52837 7.65935 2.45195 7.22168 2.4519Z" fill="#DF18FF" stroke="#DF18FF" stroke-width="0.2"/>
</svg>
